<svg width="105" height="56" viewBox="0 0 105 56" fill="none" xmlns="http://www.w3.org/2000/svg">
<path d="M16.6632 36.2709C16.345 36.8792 15.8944 37.3205 15.3113 37.595C14.7492 37.8735 14.1019 37.9404 13.3694 37.7956C12.6579 37.6549 11.6255 36.9961 10.2723 35.8192C8.94001 34.6464 7.85783 33.8479 7.02573 33.4235C6.3828 34.0758 5.6796 34.5863 4.91613 34.955C4.15266 35.3237 3.63489 35.4811 3.36283 35.4273C3.15355 35.3859 2.78149 34.8469 2.24665 33.8101C1.71398 32.7522 1.46819 32.0215 1.50929 31.6183C1.53308 31.3848 1.89316 31.0988 2.58952 30.7602C3.30681 30.4257 4.04034 30.2459 4.79013 30.221C5.44528 29.0298 6.18409 27.2273 7.00654 24.8134C7.83117 22.3783 8.53779 19.8441 9.12642 17.2108C9.16102 16.8713 9.08702 16.4453 8.90439 15.9328C8.74486 15.4033 8.56513 14.9672 8.3652 14.6246L8.0967 14.1168L8.23955 13.6579C9.53201 13.5454 11.6118 13.7726 14.479 14.3395C14.7035 14.8602 14.767 15.5981 14.6697 16.5532C14.5724 17.5082 14.1554 18.8764 13.4187 20.6577C12.6821 22.439 11.6972 24.5609 10.4642 27.0235C9.25418 29.469 8.55107 30.9213 8.35482 31.3805C8.43637 31.4182 8.6904 31.5443 9.11691 31.7585C9.54343 31.9727 9.81731 32.1135 9.93855 32.1808C10.0829 32.231 10.3485 32.3484 10.7353 32.5332C11.1243 32.6967 11.4317 32.8224 11.6576 32.9104C11.8856 32.9771 12.1858 33.069 12.5582 33.1859C13.1962 33.4203 13.7977 33.5933 14.3627 33.7051C14.9487 33.8209 15.3824 33.7551 15.6639 33.5077L16.7116 32.026L17.7215 32.4855C17.581 33.8651 17.2282 35.1268 16.6632 36.2709Z" fill="#213A49"/>
<path d="M28.383 26.2917C28.4279 26.2539 28.5605 25.9901 28.7809 25.5004C29.7773 25.6124 31.0957 26.0606 32.7359 26.8451C32.1036 28.5533 31.5723 30.3585 31.142 32.2609C30.713 34.1419 30.4745 35.4978 30.4264 36.3284C30.3795 37.1377 30.4409 37.5519 30.6105 37.5709C30.7377 37.5852 31.2158 37.4353 32.0448 37.1211L32.4375 36.9723L32.9452 38.1548C32.7445 38.3037 32.4778 38.4881 32.145 38.708C31.8334 38.9302 31.2406 39.2173 30.3667 39.5693C29.4941 39.8999 28.7185 40.0272 28.0401 39.951C26.7257 39.8033 25.9971 39.1212 25.8541 37.9047C24.4283 38.945 23.1641 39.4032 22.0617 39.2793C20.9806 39.1578 20.083 38.6283 19.3692 37.6906C18.6765 36.7554 18.3832 35.3719 18.4893 33.5403C18.6545 30.6864 19.3676 28.505 20.6286 26.9961C21.8908 25.4659 23.3487 24.7937 25.0023 24.9795C26.1895 25.1128 27.3164 25.5503 28.383 26.2917ZM24.127 36.7782C24.6358 36.8354 25.2199 36.6974 25.8793 36.3642C26.2016 33.3779 26.8719 30.4628 27.8901 27.619C27.2701 27.2707 26.7375 27.0715 26.2923 27.0215C25.5291 26.9357 24.8282 27.618 24.1894 29.0682C23.5731 30.4995 23.2125 32.1203 23.1076 33.9306C23.0028 35.7409 23.3426 36.6901 24.127 36.7782Z" fill="#213A49"/>
<path d="M34.4933 40.7135L33.8856 40.6951C33.9012 39.6926 34.2296 37.7818 34.8709 34.9628C35.5334 32.1445 35.8677 30.5434 35.8737 30.1594C35.8846 29.4555 35.5977 28.6999 35.0129 27.8927L34.731 27.5L34.7695 27.085C35.9259 26.7999 37.7729 26.6956 40.3104 26.7722C40.582 27.1432 40.721 27.809 40.7274 28.7695C42.6048 27.3964 44.1832 26.7291 45.4626 26.7677C46.2302 26.7909 46.8338 27.0759 47.2733 27.6227C47.7341 28.1701 47.9582 28.8491 47.9456 29.6597C47.9333 30.449 47.6667 31.8174 47.1457 33.765C46.6247 35.7126 46.3589 37.0277 46.3483 37.7103C46.338 38.3716 46.4181 38.7048 46.5887 38.7099C46.7166 38.7138 47.1676 38.5247 47.9416 38.1426L48.3284 37.9622L48.8867 39.0994C48.6921 39.2643 48.4329 39.4698 48.1091 39.7162C47.7852 39.9625 47.1827 40.2964 46.3014 40.7179C45.4419 41.1188 44.6709 41.3089 43.9885 41.2883C42.4319 41.2413 41.6674 40.3326 41.6949 38.5621C41.7066 37.8155 41.9625 36.4468 42.4629 34.4559C42.9845 32.4656 43.2498 31.1825 43.2588 30.6066C43.2678 30.0306 43.091 29.7372 42.7285 29.7262C42.1101 29.7076 41.349 29.9513 40.4451 30.4576C40.3755 30.8182 40.1473 31.7717 39.7605 33.3179C38.9621 36.6443 38.5521 39.0007 38.5305 40.3872C37.7795 40.6633 36.4338 40.7721 34.4933 40.7135Z" fill="#213A49"/>
<path d="M65.0213 38.8138C63.2514 40.4632 61.674 41.3234 60.2892 41.3942C58.9256 41.464 58.1193 40.8219 57.8703 39.4679C57.248 40.1404 56.5475 40.6781 55.7687 41.081C54.99 41.4838 54.3024 41.7005 53.7058 41.731C52.6831 41.7834 51.7978 41.3802 51.0498 40.5216C50.3018 39.6629 49.903 38.2953 49.8536 36.4186C49.7793 33.6036 50.3177 31.3658 51.4686 29.7054C52.619 28.0235 53.9398 27.1445 55.4312 27.0682C56.9439 26.9908 58.2206 27.2672 59.2612 27.8973C59.8306 24.4087 60.0891 21.6727 60.0368 19.6894L59.8416 18.3541C61.4249 17.7178 62.9835 17.3605 64.5175 17.282C64.6975 17.6358 64.7937 18.0473 64.8061 18.5165C64.8472 20.0733 64.4619 23.2642 63.6505 28.0891C62.8384 32.8928 62.4549 36.1476 62.4999 37.8537C62.5134 38.3655 62.6373 38.6154 62.8717 38.6035C62.9995 38.5969 63.399 38.3736 64.0701 37.9335L64.3846 37.7253L65.0213 38.8138ZM57.0469 28.8754C56.3012 28.9136 55.6708 29.6826 55.1557 31.1824C54.6619 32.6811 54.4341 34.1556 54.4723 35.6057C54.51 37.0346 54.63 37.9467 54.8325 38.3421C55.0562 38.7364 55.3705 38.9232 55.7753 38.9024C56.4784 38.8665 57.1632 38.5431 57.8298 37.9325C57.8712 37.0762 58.2758 34.2153 59.0435 29.3499C58.309 29.003 57.6435 28.8449 57.0469 28.8754Z" fill="#213A49"/>
<path d="M71.8039 28.05C71.8503 28.9448 71.6437 30.5182 71.1842 32.7702C70.7237 35.0009 70.511 36.4571 70.5464 37.1388C70.5806 37.7993 70.6932 38.1199 70.8842 38.1007C71.0116 38.0879 71.4893 37.8365 72.3174 37.3464L72.6895 37.1162L73.2887 38.1803C73.1065 38.37 72.8629 38.6086 72.5577 38.8963C72.2525 39.1839 71.6764 39.5952 70.8293 40.13C69.9811 40.6435 69.1855 40.9376 68.4426 41.0123C67.6997 41.0869 67.1043 40.9219 66.6566 40.5171C66.2078 40.0911 65.9636 39.4946 65.9239 38.7276C65.883 37.9393 66.0766 36.5279 66.5047 34.4932C66.9316 32.4372 67.1296 31.111 67.0987 30.5144C67.0524 29.6196 66.7329 28.8058 66.1402 28.073L65.8337 27.7183L65.8441 27.2997C66.9525 26.8671 68.7697 26.5239 71.2957 26.2701C71.5882 26.5619 71.7576 27.1552 71.8039 28.05ZM67.8995 23.1098C67.4529 22.7264 67.2114 22.1832 67.1749 21.4801C67.1385 20.777 67.3931 20.1304 67.9386 19.5402C68.5054 18.9479 69.1708 18.6133 69.935 18.5365C70.6991 18.4597 71.3045 18.6131 71.7511 18.9965C72.1977 19.38 72.4392 19.9232 72.4756 20.6263C72.5109 21.308 72.2346 21.9461 71.6466 22.5406C71.0799 23.1329 70.425 23.4664 69.6821 23.5411C68.9392 23.6157 68.3449 23.472 67.8995 23.1098Z" fill="#213A49"/>
<path d="M76.0116 40.4997L75.4137 40.6105C75.3184 39.6123 75.4296 37.6466 75.7473 34.7133C76.086 31.7762 76.2371 30.1165 76.2006 29.7342C76.1337 29.0334 75.769 28.3445 75.1067 27.6675L74.787 27.3377L74.7789 26.9178C75.8812 26.3894 77.6805 25.8941 80.1767 25.4317C80.4839 25.7422 80.6936 26.3734 80.8058 27.3251C82.4949 25.5643 83.9688 24.5673 85.2273 24.3341C85.9825 24.1943 86.6057 24.349 87.0969 24.7983C87.609 25.2438 87.9037 25.87 87.9807 26.677C88.0557 27.4628 87.9453 28.8772 87.6493 30.9204C87.3534 32.9635 87.2379 34.3249 87.3028 35.0044C87.3656 35.6628 87.4809 35.9764 87.6487 35.9453C87.7746 35.922 88.1959 35.6387 88.9125 35.0953L89.2718 34.8342L89.9446 35.8443C89.7721 36.0491 89.5406 36.3081 89.2503 36.6212C88.96 36.9344 88.4061 37.3935 87.5886 37.9988C86.7901 38.579 86.0552 38.9312 85.384 39.0555C83.8527 39.3392 83.0029 38.5996 82.8346 36.837C82.7637 36.0937 82.8636 34.6812 83.1345 32.5995C83.4264 30.5138 83.545 29.1843 83.4902 28.6109C83.4355 28.0376 83.2298 27.7839 82.8732 27.8499C82.2649 27.9626 81.5456 28.366 80.7152 29.0601C80.6868 29.4328 80.5683 30.4273 80.3597 32.0436C79.9438 35.5138 79.8018 37.939 79.9336 39.3194C79.2278 39.7527 77.9204 40.1462 76.0116 40.4997Z" fill="#213A49"/>
<path d="M95.1639 39.6536C94.5453 40.2632 94.2646 40.7687 94.3216 41.17C94.3787 41.5712 94.6231 41.7123 95.055 41.5932C95.5074 41.4684 95.9798 41.1077 96.472 40.5109C96.9672 39.9354 97.3308 39.1107 97.5628 38.0371C96.6027 38.4994 95.8031 39.0383 95.1639 39.6536ZM101.875 19.8917C101.97 19.9535 102.038 20.1322 102.08 20.4279C102.119 20.7025 102.142 21.0144 102.149 21.3637C102.153 21.6919 102.184 22.4404 102.244 23.6093C102.303 24.7782 102.341 25.7992 102.359 26.6724C102.661 36.4661 100.519 41.9955 95.9332 43.2605C95.1929 43.4648 94.4857 43.4513 93.8117 43.2202C93.1582 42.9834 92.7865 42.5482 92.6964 41.9146C92.5762 41.0697 92.9705 40.1598 93.8791 39.1849C94.7877 38.2099 96.0684 37.2969 97.7213 36.4459C97.7183 36.4248 97.7379 36.1121 97.7802 35.5078C97.8226 34.9035 97.8387 34.4161 97.8288 34.0457C96.727 35.3154 95.6312 36.1006 94.5412 36.4013C93.4718 36.6962 92.5259 36.5072 91.7036 35.8341C90.9018 35.1553 90.3658 33.8655 90.0955 31.9646C89.7412 29.4724 89.9919 27.2522 90.8476 25.3041C91.7003 23.3349 93.0213 22.1035 94.8104 21.61C95.8181 21.332 96.8516 21.3104 97.9108 21.545C98.9056 20.8755 100.01 20.3734 101.223 20.0387L101.875 19.8917ZM96.4644 23.0963C95.5801 23.3402 94.9859 24.2723 94.682 25.8926C94.3751 27.4918 94.3493 29.189 94.6045 30.9843C94.8568 32.7584 95.3736 33.5377 96.1551 33.3222C96.6692 33.1803 97.2474 32.8123 97.8896 32.2182C97.9609 28.511 97.9563 25.4723 97.8757 23.1021C97.2639 23.0075 96.7934 23.0055 96.4644 23.0963Z" fill="#213A49"/>
</svg>
